<svg width="25" height="25" viewBox="0 0 25 25" fill="none" xmlns="http://www.w3.org/2000/svg">
<path fill-rule="evenodd" clip-rule="evenodd" d="M0 3.33333C0 1.49238 1.49238 0 3.33333 0H7.33333C9.17428 0 10.6667 1.49238 10.6667 3.33333V7.33333C10.6667 9.17428 9.17428 10.6667 7.33333 10.6667H3.33333C1.49238 10.6667 0 9.17428 0 7.33333V3.33333ZM3.33333 1.33333H7.33333C8.4379 1.33333 9.33333 2.22876 9.33333 3.33333V7.33333C9.33333 8.4379 8.4379 9.33333 7.33333 9.33333H3.33333C2.22876 9.33333 1.33333 8.4379 1.33333 7.33333V3.33333C1.33333 2.22876 2.22876 1.33333 3.33333 1.33333Z" fill="white"/>
<path fill-rule="evenodd" clip-rule="evenodd" d="M0 16.6667C0 14.8257 1.49238 13.3333 3.33333 13.3333H7.33333C9.17428 13.3333 10.6667 14.8257 10.6667 16.6667V20.6667C10.6667 22.5076 9.17428 24 7.33333 24H3.33333C1.49238 24 0 22.5076 0 20.6667V16.6667ZM3.33333 14.6667H7.33333C8.4379 14.6667 9.33333 15.5621 9.33333 16.6667V20.6667C9.33333 21.7712 8.4379 22.6667 7.33333 22.6667H3.33333C2.22876 22.6667 1.33333 21.7712 1.33333 20.6667V16.6667C1.33333 15.5621 2.22876 14.6667 3.33333 14.6667Z" fill="white"/>
<path fill-rule="evenodd" clip-rule="evenodd" d="M16.6667 0C14.8257 0 13.3333 1.49238 13.3333 3.33333V7.33333C13.3333 9.17428 14.8257 10.6667 16.6667 10.6667H20.6667C22.5076 10.6667 24 9.17428 24 7.33333V3.33333C24 1.49238 22.5076 0 20.6667 0H16.6667ZM20.6667 1.33333H16.6667C15.5621 1.33333 14.6667 2.22876 14.6667 3.33333V7.33333C14.6667 8.4379 15.5621 9.33333 16.6667 9.33333H20.6667C21.7712 9.33333 22.6667 8.4379 22.6667 7.33333V3.33333C22.6667 2.22876 21.7712 1.33333 20.6667 1.33333Z" fill="white"/>
<path fill-rule="evenodd" clip-rule="evenodd" d="M13.4814 21.0237C12.1796 19.7219 12.1796 17.6114 13.4814 16.3096L16.3098 13.4812C17.6115 12.1795 19.7221 12.1795 21.0238 13.4812L23.8523 16.3096C25.154 17.6114 25.154 19.7219 23.8523 21.0237L21.0238 23.8521C19.7221 25.1539 17.6115 25.1539 16.3098 23.8521L13.4814 21.0237ZM14.4242 17.2525L17.2526 14.424C18.0337 13.643 19.3 13.643 20.081 14.424L22.9095 17.2525C23.6905 18.0335 23.6905 19.2998 22.9095 20.0809L20.081 22.9093C19.3 23.6904 18.0337 23.6904 17.2526 22.9093L14.4242 20.0809C13.6431 19.2998 13.6431 18.0335 14.4242 17.2525Z" fill="white"/>
</svg>
