 <svg width="32" height="32" viewBox="0 0 32 32" fill="none" xmlns="http://www.w3.org/2000/svg">
<path d="M3.40749 9.33333C2.99839 9.33333 2.66675 9.03486 2.66675 8.66667C2.66675 8.29848 2.99839 8 3.40749 8H28.5927C29.0018 8 29.3334 8.29848 29.3334 8.66667C29.3334 9.03486 29.0018 9.33333 28.5927 9.33333H3.40749ZM3.40749 16C2.99839 16 2.66675 15.7015 2.66675 15.3333C2.66675 14.9651 2.99839 14.6667 3.40749 14.6667H28.5927C29.0018 14.6667 29.3334 14.9651 29.3334 15.3333C29.3334 15.7015 29.0018 16 28.5927 16H3.40749ZM3.40749 22.6667C2.99839 22.6667 2.66675 22.3682 2.66675 22C2.66675 21.6318 2.99839 21.3333 3.40749 21.3333H28.5927C29.0018 21.3333 29.3334 21.6318 29.3334 22C29.3334 22.3682 29.0018 22.6667 28.5927 22.6667H3.40749Z" fill="white"/>
</svg>
